<svg width="115" height="23" viewBox="0 0 115 23" fill="none" xmlns="http://www.w3.org/2000/svg">
<path d="M0.596236 22V0.90909H5.6321V8.89027H5.73509C5.94105 8.40968 6.23284 7.94626 6.61044 7.5C6.99491 7.05374 7.48236 6.68987 8.0728 6.40838C8.6701 6.12003 9.38411 5.97585 10.2148 5.97585C11.3133 5.97585 12.3397 6.2642 13.294 6.84091C14.2552 7.41761 15.031 8.3067 15.6214 9.50817C16.2119 10.7096 16.5071 12.2406 16.5071 14.1012C16.5071 15.8931 16.2222 17.3932 15.6523 18.6016C15.0894 19.8099 14.3273 20.7161 13.3661 21.3203C12.4118 21.9245 11.3511 22.2266 10.1839 22.2266C9.38755 22.2266 8.69756 22.0961 8.11399 21.8352C7.53042 21.5743 7.03954 21.2311 6.64134 20.8054C6.25 20.3797 5.94792 19.9232 5.73509 19.4357H5.58061V22H0.596236ZM5.52912 14.0909C5.52912 14.9422 5.6424 15.6837 5.86896 16.3153C6.10239 16.947 6.43537 17.4379 6.8679 17.788C7.30729 18.1313 7.8325 18.3029 8.44354 18.3029C9.06143 18.3029 9.58665 18.1313 10.0192 17.788C10.4517 17.4379 10.7778 16.947 10.9975 16.3153C11.2241 15.6837 11.3374 14.9422 11.3374 14.0909C11.3374 13.2396 11.2241 12.5015 10.9975 11.8768C10.7778 11.252 10.4517 10.768 10.0192 10.4247C9.59351 10.0814 9.0683 9.9098 8.44354 9.9098C7.82564 9.9098 7.30043 10.078 6.8679 10.4144C6.43537 10.7508 6.10239 11.2314 5.86896 11.8562C5.6424 12.4809 5.52912 13.2259 5.52912 14.0909ZM24.1819 0.90909V22H19.146V0.90909H24.1819ZM37.5929 15.1722V6.18182H42.6184V22H37.8194V19.0547H37.6547C37.3045 20.0227 36.7072 20.7917 35.8627 21.3615C35.0252 21.9245 34.0125 22.206 32.8248 22.206C31.7469 22.206 30.7994 21.9588 29.9824 21.4645C29.1654 20.9702 28.5304 20.2802 28.0772 19.3945C27.6241 18.502 27.3941 17.4585 27.3873 16.2638V6.18182H32.4231V15.2752C32.43 16.1334 32.6565 16.8097 33.1028 17.304C33.5491 17.7983 34.1567 18.0455 34.9256 18.0455C35.4268 18.0455 35.8765 17.9356 36.2747 17.7159C36.6797 17.4893 36.999 17.1632 37.2324 16.7376C37.4727 16.305 37.5929 15.7833 37.5929 15.1722ZM53.218 22.2987C51.5634 22.2987 50.1353 21.9725 48.9339 21.3203C47.7393 20.6612 46.8193 19.7241 46.1739 18.5089C45.5354 17.2868 45.2162 15.8348 45.2162 14.1527C45.2162 12.5187 45.5389 11.0907 46.1842 9.86861C46.8296 8.63968 47.7393 7.68537 48.9133 7.00568C50.0873 6.31913 51.4707 5.97585 53.0635 5.97585C54.1894 5.97585 55.2193 6.15092 56.153 6.50106C57.0867 6.85121 57.8934 7.36955 58.5731 8.05611C59.2528 8.74266 59.7814 9.59055 60.159 10.5998C60.5366 11.6022 60.7254 12.7521 60.7254 14.0497V15.3061H46.9772V12.3814H56.0397C56.0328 11.8459 55.9058 11.3687 55.6586 10.9499C55.4115 10.5311 55.0716 10.205 54.6391 9.97159C54.2135 9.7313 53.7226 9.61115 53.1665 9.61115C52.6035 9.61115 52.0989 9.73816 51.6526 9.99219C51.2064 10.2393 50.8528 10.5792 50.5919 11.0117C50.331 11.4374 50.1937 11.9214 50.18 12.4638V15.44C50.18 16.0853 50.307 16.6518 50.561 17.1392C50.815 17.6198 51.1755 17.994 51.6423 18.2617C52.1092 18.5295 52.6653 18.6634 53.3106 18.6634C53.7569 18.6634 54.162 18.6016 54.5258 18.478C54.8897 18.3544 55.2021 18.1725 55.463 17.9322C55.7239 17.6919 55.9195 17.3967 56.05 17.0465L60.6739 17.1804C60.4817 18.2171 60.0595 19.1199 59.4072 19.8888C58.7619 20.6509 57.914 21.2448 56.8635 21.6705C55.8131 22.0893 54.5979 22.2987 53.218 22.2987ZM63.2974 22V0.90909H72.0922C73.6712 0.90909 74.9928 1.13222 76.057 1.57848C77.128 2.02474 77.9313 2.6495 78.4668 3.45277C79.0092 4.25604 79.2804 5.18632 79.2804 6.24361C79.2804 7.04688 79.1122 7.76432 78.7757 8.39595C78.4393 9.02071 77.9759 9.53906 77.3855 9.95099C76.795 10.3629 76.1119 10.6513 75.3361 10.8161V11.022C76.1874 11.0632 76.9735 11.2932 77.6944 11.712C78.4222 12.1308 79.0057 12.7144 79.4451 13.4627C79.8845 14.2042 80.1042 15.083 80.1042 16.0991C80.1042 17.2319 79.8159 18.2446 79.2392 19.1371C78.6625 20.0227 77.8283 20.723 76.7367 21.2379C75.6451 21.746 74.32 22 72.7615 22H63.2974ZM68.3951 17.891H71.5463C72.6517 17.891 73.4653 17.6816 73.987 17.2628C74.5157 16.844 74.78 16.2604 74.78 15.5121C74.78 14.9697 74.653 14.5028 74.399 14.1115C74.1449 13.7133 73.7845 13.4078 73.3176 13.195C72.8508 12.9753 72.2913 12.8654 71.639 12.8654H68.3951V17.891ZM68.3951 9.58026H71.2168C71.7729 9.58026 72.2672 9.48757 72.6998 9.3022C73.1323 9.11683 73.4687 8.84908 73.709 8.49893C73.9561 8.14879 74.0797 7.72656 74.0797 7.23224C74.0797 6.52509 73.8291 5.96899 73.3279 5.56392C72.8268 5.15885 72.1505 4.95632 71.2992 4.95632H68.3951V9.58026ZM89.9391 22.2987C88.2776 22.2987 86.8496 21.9588 85.655 21.2791C84.4673 20.5926 83.5507 19.6383 82.9054 18.4162C82.2669 17.1873 81.9476 15.7627 81.9476 14.1424C81.9476 12.5153 82.2669 11.0907 82.9054 9.86861C83.5507 8.63968 84.4673 7.68537 85.655 7.00568C86.8496 6.31913 88.2776 5.97585 89.9391 5.97585C91.6006 5.97585 93.0252 6.31913 94.2129 7.00568C95.4075 7.68537 96.324 8.63968 96.9625 9.86861C97.6079 11.0907 97.9306 12.5153 97.9306 14.1424C97.9306 15.7627 97.6079 17.1873 96.9625 18.4162C96.324 19.6383 95.4075 20.5926 94.2129 21.2791C93.0252 21.9588 91.6006 22.2987 89.9391 22.2987ZM89.97 18.4986C90.5742 18.4986 91.0856 18.3132 91.5044 17.9425C91.9232 17.5717 92.2425 17.0568 92.4622 16.3977C92.6887 15.7386 92.802 14.9766 92.802 14.1115C92.802 13.2327 92.6887 12.4638 92.4622 11.8047C92.2425 11.1456 91.9232 10.6307 91.5044 10.2599C91.0856 9.8892 90.5742 9.70384 89.97 9.70384C89.3452 9.70384 88.8166 9.8892 88.3841 10.2599C87.9584 10.6307 87.6323 11.1456 87.4057 11.8047C87.186 12.4638 87.0762 13.2327 87.0762 14.1115C87.0762 14.9766 87.186 15.7386 87.4057 16.3977C87.6323 17.0568 87.9584 17.5717 88.3841 17.9425C88.8166 18.3132 89.3452 18.4986 89.97 18.4986ZM104.228 6.18182L106.833 11.3928L109.532 6.18182H114.609L110.191 14.0909L114.773 22H109.738L106.833 16.7479L104.001 22H98.8935L103.487 14.0909L99.12 6.18182H104.228Z" fill="#4FBFCE"/>
</svg>
